<mxfile host="app.diagrams.net" modified="2024-05-25T04:00:05.335Z" agent="Mozilla/5.0 (Macintosh; Intel Mac OS X 10_15_7) AppleWebKit/605.1.15 (KHTML, like Gecko) Version/16.5.1 Safari/605.1.15" version="24.4.8" etag="L7xIZo0IdsB0jHnhO4ZK" type="github">
  <diagram name="PÃ¡gina-1" id="9FJa5fPBLxG4L4UsCEAx">
    <mxGraphModel>
      <root>
        <mxCell id="0" />
        <mxCell id="1" parent="0" />
      </root>
    </mxGraphModel>
  </diagram>
</mxfile>
